<!--?xml version="1.0" encoding="UTF-8"?-->
<svg width="64" height="64" viewBox="0 0 64 64" xmlns="http://www.w3.org/2000/svg">
  <title>QR + Text favicon</title>
  <defs>
    <style>
      .qr{ fill:#F6C343; }
      .page{ fill:#2D7EF7; }
      .fold{ fill:#69A7FF; }
      .line{ fill:#FFFFFF; opacity:.95; }
    </style>
  </defs>

  <!-- QR “finder” rings（左上/右上/左下） -->
  <path class="qr" fill-rule="evenodd" d="M6 6h16v16H6V6zm4 4v8h8v-8h-8z"></path>
  <path class="qr" fill-rule="evenodd" d="M42 6h16v16H42V6zm4 4v8h8v-8h-8z"></path>
  <path class="qr" fill-rule="evenodd" d="M6 42h16v16H6V42zm4 4v8h8v-8h-8z"></path>

  <!-- QR modules（ほどよく“それっぽさ”が出る粒） -->
  <rect class="qr" x="26" y="6" width="6" height="6" rx="1"></rect>
  <rect class="qr" x="34" y="6" width="6" height="6" rx="1"></rect>
  <rect class="qr" x="26" y="14" width="6" height="6" rx="1"></rect>
  <rect class="qr" x="34" y="14" width="6" height="6" rx="1"></rect>
  <rect class="qr" x="26" y="26" width="6" height="6" rx="1"></rect>
  <rect class="qr" x="34" y="26" width="6" height="6" rx="1"></rect>
  <rect class="qr" x="18" y="26" width="6" height="6" rx="1"></rect>
  <rect class="qr" x="26" y="34" width="6" height="6" rx="1"></rect>

  <!-- “紙”アイコン（右下に重ねる） -->
  <rect class="page" x="36" y="32" width="22" height="26" rx="3"></rect>
  <polygon class="fold" points="50,32 58,40 50,40"></polygon>

  <!-- 罫線 -->
  <rect class="line" x="40" y="44" width="14" height="2" rx="1"></rect>
  <rect class="line" x="40" y="48" width="12" height="2" rx="1"></rect>
  <rect class="line" x="40" y="52" width="10" height="2" rx="1"></rect>
</svg>
